inDegrees=no
num_controls=7
num_derivatives=13
num_iterations=106
num_multipliers=7
num_parameters=0
num_slacks=7
num_states=26
objective=0.334215
objective_accelerations=0.036111
objective_balance=0.001222
objective_effort=0.027117
objective_height=0.268117
objective_ligament=0.001648
solver_duration=1107.122465
status=Solve_Succeeded
success=true
DataType=double
version=3
OpenSimVersion=4.5
endheader
time	/jointset/ground_pelvis/pelvis_tilt/value	/jointset/ground_pelvis/pelvis_tx/value	/jointset/ground_pelvis/pelvis_ty/value	/jointset/hip_r/hip_flexion_r/value	/jointset/hip_r/hip_adduction_r/value	/jointset/hip_r/hip_rotation_r/value	/jointset/back/lumbar_extension/value	/jointset/patellofemoral_r/patellar_flexion_r/value	/jointset/knee_r/knee_flexion_r/value	/jointset/knee_r/knee_adduction_r/value	/jointset/knee_r/knee_rotation_r/value	/jointset/ankle_r/ankle_angle_r/value	/jointset/subtalar_r/subtalar_angle_r/value	/jointset/ground_pelvis/pelvis_tilt/speed	/jointset/ground_pelvis/pelvis_tx/speed	/jointset/ground_pelvis/pelvis_ty/speed	/jointset/hip_r/hip_flexion_r/speed	/jointset/hip_r/hip_adduction_r/speed	/jointset/hip_r/hip_rotation_r/speed	/jointset/back/lumbar_extension/speed	/jointset/patellofemoral_r/patellar_flexion_r/speed	/jointset/knee_r/knee_flexion_r/speed	/jointset/knee_r/knee_adduction_r/speed	/jointset/knee_r/knee_rotation_r/speed	/jointset/ankle_r/ankle_angle_r/speed	/jointset/subtalar_r/subtalar_angle_r/speed	/forceset/tau_hip_flexion_r	/forceset/tau_hip_adduction_r	/forceset/tau_hip_rotation_r	/forceset/tau_knee_flexion_r	/forceset/tau_ankle_angle_r	/forceset/tau_subtalar_angle_r	/forceset/tau_lumbar_extension	lambda_cid13_p0	lambda_cid14_p0	lambda_cid14_p1	lambda_cid14_p2	lambda_cid14_p3	lambda_cid14_p4	lambda_cid14_p5	/jointset/ground_pelvis/pelvis_tilt/accel	/jointset/ground_pelvis/pelvis_tx/accel	/jointset/ground_pelvis/pelvis_ty/accel	/jointset/hip_r/hip_flexion_r/accel	/jointset/hip_r/hip_adduction_r/accel	/jointset/hip_r/hip_rotation_r/accel	/jointset/back/lumbar_extension/accel	/jointset/patellofemoral_r/patellar_flexion_r/accel	/jointset/knee_r/knee_flexion_r/accel	/jointset/knee_r/knee_adduction_r/accel	/jointset/knee_r/knee_rotation_r/accel	/jointset/ankle_r/ankle_angle_r/accel	/jointset/subtalar_r/subtalar_angle_r/accel	gamma_cid13_p0	gamma_cid14_p0	gamma_cid14_p1	gamma_cid14_p2	gamma_cid14_p3	gamma_cid14_p4	gamma_cid14_p5
0.5	-0.1684612759318815	0.03220795933681275	0.8069039006643498	0.9084019491225499	-0.2391559411623865	-0.08534081818157897	-0.6468549712225923	0.9502132870817322	0.9502132870817196	0.01317629627824956	0.1745208069202444	0.2923438687791613	0.1120478856928525	-0.4227596886239922	-0.2042789855835397	-0.4960846505243149	1.91742093689485	-0.01268946948016859	0.3274880491259001	-0.7400087345189286	1.924673241542962	1.924673241542959	-0.3050637327053509	-0.0001345070006810553	0.5268256573943676	0.168105304362515	-0.21244861974443	0.01616663348797851	0.02610043500145591	-0.2681505996547418	-0.01988140924413683	-0.009471090402534776	0.2480329222162799	-8.349527555033596	-49.19010306892826	-11.34962289985066	0.6590770920003757	-3.000108860105767	-640.4725334124643	53.16952141891406	0.3412948861646375	0.5838043096185113	-0.4210840907132852	-1.291696652792369	-0.1081156901531411	-0.2243854449890105	1.810509074981408	-1.339992411583632	-1.339992411583629	0.7241106007119534	-0.0588207560800158	-0.5396883290129486	-0.2050985430520018	-2.702733260578585e-08	1.419480091858316e-07	2.395649505267569e-06	1.267222240089394e-06	-3.482218153705552e-07	-2.726456686263505e-08	1.51618048174772e-06
0.51	-0.1726709090461355	0.03019454608993203	0.8019231450963468	0.9275086263777128	-0.2392883549689882	-0.08208079811518637	-0.6541639623696801	0.9693900134708416	0.9693900134708294	0.01015986312865802	0.1745192768059024	0.2975842202518243	0.1137181644250719	-0.4190990526686494	-0.1983859893550976	-0.4999557804711895	1.903658556033188	-0.01378173508376718	0.3245018313919161	-0.7217041398931798	1.910413880979178	1.910413880979177	-0.2982169935903213	-0.0001697733554977201	0.5211713363443905	0.1659325300435079	-0.2192716952114499	0.01744159832069503	0.02615253078073571	-0.2725220423244147	-0.02127734472836179	-0.008998683613480564	0.2542300853664882	-7.399151000928072	-49.93700658244991	-11.41318506532598	0.8267831994270922	-2.948450557497151	-645.4354899892672	53.31328500772157	0.3886454802436093	0.5946279159495498	-0.3535319321001228	-1.456883128508663	-0.1077206349651392	-0.3379030768438778	1.853237907163994	-1.507625026052919	-1.507625026052509	0.6661770508415005	0.02469321814611229	-0.5893773959222693	-0.2255224005696697	-3.030343896734828e-08	1.364350027639562e-07	2.38607207353595e-06	1.187918072870341e-06	-3.445726093059019e-07	-3.697695143925962e-08	1.559998342390695e-06
0.52	-0.1768418962948297	0.02824057893263419	0.7969069973317902	0.9464700049591294	-0.2394312791595241	-0.07885107285398581	-0.6612873469203515	0.9884164028248562	0.9884164028248473	0.007212141666998566	0.1745175085866784	0.3027658138334015	0.1153662843092526	-0.4150305155123273	-0.1923897676669629	-0.5031630898350874	1.888361202145303	-0.01479154626743991	0.3214290880883006	-0.7028874152357361	1.894605834524312	1.894605834524314	-0.2913213951175709	-0.0001821279771702147	0.5150740791771261	0.1636735347547169	-0.2260947706784691	0.01871656315340247	0.02620462656004614	-0.2768934849940852	-0.02267328021258921	-0.00852627682444175	0.2604272485166985	-6.508519502253156	-50.68221205314027	-11.47187993186663	0.9884947212849816	-2.916950655476025	-650.382178088065	53.46184400790555	0.4228751263605338	0.6044494015570383	-0.2883199741179125	-1.598691258037067	-0.09162480616797744	-0.2416905589153025	1.912935081320393	-1.649729589799823	-1.649729589799823	0.7338824722561234	-0.05423840945116053	-0.6282755524703991	-0.2223427370087857	-2.942509393232799e-08	1.2835926323305e-07	2.269774025832848e-06	1.082937624512088e-06	-3.282616788708963e-07	-4.222199309362389e-08	1.532194884101893e-06
0.53	-0.1809702300100353	0.02634701202238544	0.7918621228579957	0.9652708965603465	-0.2395839846717603	-0.07565199367428066	-0.6682201466193275	1.007277113294738	1.007277113294732	0.004334087437252234	0.1745155043164042	0.3078842232994687	0.116991207704008	-0.4105719625298239	-0.1863133274307707	-0.5056975164469028	1.871570330498407	-0.01574074456920118	0.3183826575280242	-0.6836046990880452	1.877286897878259	1.877286897878258	-0.2842697267292368	-0.0002158635228118195	0.5085356417207977	0.161287665881574	-0.232784995094188	0.01994683914239387	0.02615123601605986	-0.2813649397586724	-0.02414727767339898	-0.008082786872995617	0.2664670234585761	-5.678422699987157	-51.46277285797136	-11.54711897094977	1.150323943146142	-2.790516987979943	-655.4029908267331	53.59057586500479	0.466998854163282	0.6107204385859619	-0.2188697285803521	-1.756286131094091	-0.09497368635173714	-0.3367866840901803	1.946113702180217	-1.810374145275748	-1.810374145276253	0.6940609348212646	0.02275837412296437	-0.6775233631723603	-0.2497616736555519	-3.353042265414044e-08	1.129169639177252e-07	2.116906067955093e-06	9.15702374993952e-07	-3.037952010477823e-07	-5.016978885969642e-08	1.466732646254878e-06
